<?xml version="1.0" encoding="UTF-8" standalone="no"?>
<svg width="31px" height="25px" viewBox="0 0 31 25" version="1.1" xmlns="http://www.w3.org/2000/svg" xmlns:xlink="http://www.w3.org/1999/xlink">
    <!-- Generator: Sketch 39.1 (31720) - http://www.bohemiancoding.com/sketch -->
    <title>Fill 1</title>
    <desc>Created with Sketch.</desc>
    <defs>
        <filter x="-50%" y="-50%" width="200%" height="200%" filterUnits="objectBoundingBox" id="filter-1">
            <feOffset dx="2" dy="2" in="SourceAlpha" result="shadowOffsetOuter1"></feOffset>
            <feColorMatrix values="0 0 0 0 0.838701105   0 0 0 0 0.838701105   0 0 0 0 0.838701105  0 0 0 1 0" type="matrix" in="shadowOffsetOuter1" result="shadowMatrixOuter1"></feColorMatrix>
            <feMerge>
                <feMergeNode in="shadowMatrixOuter1"></feMergeNode>
                <feMergeNode in="SourceGraphic"></feMergeNode>
            </feMerge>
        </filter>
    </defs>
    <g id="Page-1" stroke="none" stroke-width="1" fill="none" fill-rule="evenodd">
        <g id="Option-1" transform="translate(-503.000000, -787.000000)" fill="#FF4848">
            <g id="Group">
                <g id="Section-of-articles" transform="translate(213.000000, 276.000000)">
                    <g id="Card-1" filter="url(#filter-1)">
                        <g id="Group-2" transform="translate(245.000000, 511.000000)">
                            <path d="M65.9399722,0 C63.96656,0 61.9931478,0.74959861 60.487666,2.24841513 L59.7066352,3.01438385 L58.9347795,2.24841513 C57.4292977,0.74959861 55.4558855,0 53.4824734,0 C51.5090612,0 49.535649,0.74959861 48.0301672,2.24841513 C45.0180567,5.24795167 45.0180567,10.1094927 48.0301672,13.1090292 L56.6975831,21.8084085 C57.4996402,22.6071174 58.5501897,23 59.6015038,23 C59.6190894,23 59.636675,23 59.6546429,22.9996193 C59.6737577,23 59.6932548,23 59.7127519,23 C60.7625369,23 61.8107926,22.6055946 62.6128497,21.8084085 L71.3922783,13.110552 C74.4043888,10.1110155 74.4043888,5.24795167 71.3922783,2.24841513 C69.8867965,0.74959861 67.9133843,0 65.9399722,0 M65.9399722,2.28420094 C67.3869627,2.28420094 68.7475543,2.84497228 69.7701962,3.8637259 C70.7936027,4.88286022 71.3574894,6.23815278 71.3574894,7.67948357 C71.3574894,9.12081437 70.7936027,10.4761069 69.7744014,11.4910535 L60.9922968,20.1919556 C60.6524356,20.5296367 60.1978856,20.7157991 59.7127519,20.7157991 L59.6867558,20.7157991 L59.6565544,20.7154184 L59.6259707,20.7157991 L59.6015038,20.7157991 C59.1133117,20.7157991 58.6579972,20.5303981 58.3261642,20.1995696 L49.6522493,11.4937184 C48.6288428,10.4745841 48.0649562,9.11967227 48.0649562,7.67872217 C48.0649562,6.23777208 48.6288428,4.88286022 49.6522493,3.8637259 C50.6748912,2.84497228 52.0354828,2.28420094 53.4824734,2.28420094 C54.9294639,2.28420094 56.2900555,2.84497228 57.3157558,3.8667715 L58.0879938,4.63274021 L59.6974601,6.22939667 L61.3161015,4.64187702 L62.1097481,3.8637259 C63.13239,2.84497228 64.4929816,2.28420094 65.9399722,2.28420094" id="Fill-1"></path>
                        </g>
                    </g>
                </g>
            </g>
        </g>
    </g>
</svg>