<?xml version="1.0" encoding="UTF-8" standalone="no"?>
<svg width="50px" height="49px" viewBox="0 0 50 49" version="1.1" xmlns="http://www.w3.org/2000/svg" xmlns:xlink="http://www.w3.org/1999/xlink">
    <!-- Generator: Sketch 39.1 (31720) - http://www.bohemiancoding.com/sketch -->
    <title>Fill 1</title>
    <desc>Created with Sketch.</desc>
    <defs></defs>
    <g id="Page-1" stroke="none" stroke-width="1" fill="none" fill-rule="evenodd">
        <g id="Option-1" transform="translate(-36.000000, -16.000000)" fill="#00D66C">
            <g id="Group">
                <g id="Header">
                    <g id="Buttons" transform="translate(36.000000, 16.000000)">
                        <path d="M37.3237983,30.0924531 C36.5852779,35.8009753 32.4273482,39.5941479 26.4681494,39.5941479 C20.0676396,39.5941479 15.7611052,35.1622753 15.7611052,28.8105498 L15.7611052,24.0086665 L12.1150362,24.0086665 C10.7370653,24.0086665 9.75687467,22.9594272 9.75687467,21.5799552 L9.75687467,20.938253 C9.75687467,19.5610327 10.7370653,19.5054935 12.1150362,19.5054935 L19.3508846,19.5054935 C19.7576712,19.5054935 20.0999124,19.2067831 20.3986228,19.3388761 C20.3153141,19.0897006 20.2642782,18.4449963 20.2642782,18.1342774 L20.2642782,10.8931753 C20.2642782,9.51895703 21.0748493,8.99809003 22.4505686,8.99809003 L23.4390151,8.99809003 C24.8147344,8.99809003 25.5179799,9.51745598 25.5179799,10.8931753 L25.5179799,15.7528494 L29.6871675,15.7528494 C31.0696416,15.7528494 31.5222105,16.1168559 31.5222105,17.4970784 L31.5222105,18.1357784 C31.5222105,19.5114978 31.0696416,21.0065512 29.6871675,21.0065512 L22.4505686,21.0065512 C22.0445325,21.0065512 21.4388558,20.584754 21.1431474,20.4504093 C21.2204519,20.6980838 21.014807,20.6230309 21.014807,20.938253 L21.014807,28.8120509 C21.014807,32.1639126 23.2821546,34.4755414 26.4313735,34.4755414 C29.140032,34.4755414 31.3308256,32.9962491 31.679071,30.3844088 C31.8787117,28.958404 32.5932151,28.5118394 33.9719365,28.5118394 L35.350658,28.5118394 L35.3491569,28.2206342 C36.5822758,28.2206342 37.5174347,28.6641967 37.3237983,30.0924531 L37.3237983,30.0924531 Z M49.0373016,24.7591953 C49.0373016,11.2496765 38.2056696,0 24.517525,0 C10.8293804,0 0,10.7956066 0,24.4830007 C0,38.1681432 10.8346341,48.9997751 24.519026,48.9997751 C38.2071707,49.0027772 49.0358005,38.2844752 49.0358005,24.5993326 L49.0403037,24.7591953 L49.0373016,24.7591953 Z" id="Fill-1"></path>
                    </g>
                </g>
            </g>
        </g>
    </g>
</svg>